<svg xmlns="http://www.w3.org/2000/svg" viewBox="0 0 512 512" ><path d="m512 256c0 141.386719-114.613281 256-256 256s-256-114.613281-256-256 114.613281-256 256-256 256 114.613281 256 256zm0 0" fill="#a8eefc"/><path d="m512 256c0-1.824219-.03125-3.640625-.070312-5.457031l-87.542969-87.542969-25.464844 63.6875-14-14.355469-128.921875 10.667969-99.652344-10.667969-49.003906-49.332031-6.578125 221.667969 125.621094 125.617187c9.71875 1.121094 19.59375 1.714844 29.613281 1.714844 141.386719 0 256-114.613281 256-256zm0 0" fill="#21b4d3"/><path d="m355.320312 222.199219h-132.207031l32.886719 49.332031h99.320312zm0 0" fill="#8b2613"/><path d="m156.679688 222.199219h99.320312v49.332031h-99.320312zm0 0" fill="#c7461f"/><path d="m120.40625 291.265625c-.574219-29.09375-3.660156-45.316406-6.660156-61.046875-3.292969-17.289062-6.402344-33.617188-6.402344-67.21875h-19.730469c0 35.464844 3.429688 53.484375 6.75 70.910156 3.292969 17.289063 6.402344 33.617188 6.402344 67.21875v83.535156h19.734375v-73.667968h65.777344v73.667968h19.730468v-93.402343h-85.601562zm0 0" fill="#f9963b"/><path d="m404.65625 163c0 33.601562-3.109375 49.929688-6.402344 67.21875-3 15.730469-6.085937 31.953125-6.660156 61.046875h-85.605469v93.402344h19.734375v-73.671875h65.777344v73.671875h19.734375v-83.539063c0-33.601562 3.109375-49.929687 6.402344-67.21875 3.320312-17.425781 6.75-35.445312 6.75-70.910156zm0 0" fill="#eb7330"/><path d="m345.457031 222.199219h19.730469v162.464843h-19.730469zm0 0" fill="#c7461f"/><path d="m146.8125 222.199219h19.730469v162.464843h-19.730469zm0 0" fill="#d95d27"/><path d="m384.921875 212.332031h-128.921875l-19.734375 9.867188 19.734375 9.867187h128.921875zm0 0" fill="#c7461f"/><path d="m127.078125 212.332031h128.921875v19.734375h-128.921875zm0 0" fill="#d95d27"/></svg>